<svg xmlns="http://www.w3.org/2000/svg" viewBox="0 0 1170 2532" role="img" aria-labelledby="title desc">
  <title id="title">Money Manager Startup Image</title>
  <desc id="desc">Dark startup image with brand mark and tagline for iPhone launch.</desc>
  <defs>
    <linearGradient id="bg" x1="0" y1="0" x2="1" y2="1">
      <stop offset="0%" stop-color="#152034" />
      <stop offset="50%" stop-color="#0f1520" />
      <stop offset="100%" stop-color="#090c11" />
    </linearGradient>
    <linearGradient id="mark" x1="0" y1="0" x2="1" y2="1">
      <stop offset="0%" stop-color="#60a5fa" />
      <stop offset="100%" stop-color="#34d399" />
    </linearGradient>
  </defs>
  <rect width="1170" height="2532" fill="url(#bg)" />
  <circle cx="910" cy="362" r="158" fill="#fbbf24" opacity="0.08" />
  <circle cx="258" cy="2076" r="188" fill="#60a5fa" opacity="0.08" />
  <g transform="translate(305 980)">
    <rect width="560" height="560" rx="156" fill="#151b25" stroke="#2e3750" stroke-width="18" />
    <rect x="74" y="104" width="412" height="86" rx="43" fill="url(#mark)" />
    <path d="M164 270h218c62 0 108 46 108 108s-46 108-108 108H238c-62 0-108-46-108-108h256" fill="none" stroke="#ecf4ff" stroke-linecap="round" stroke-linejoin="round" stroke-width="54" />
    <path d="M192 206h188" stroke="#fbbf24" stroke-linecap="round" stroke-width="42" />
    <path d="M106 602c46-54 98-80 156-80h142c58 0 110 28 160 80" fill="none" stroke="#34d399" stroke-linecap="round" stroke-width="42" opacity="0.9" />
  </g>
  <g fill="#ecf4ff" font-family="system-ui, -apple-system, BlinkMacSystemFont, 'Segoe UI', sans-serif" text-anchor="middle">
    <text x="585" y="1718" font-size="76" opacity="0.72" letter-spacing="14">MONEY MANAGER</text>
    <text x="585" y="1820" font-size="116" font-weight="700">Track cash flow with clarity</text>
  </g>
</svg>